<svg enable-background="new 0 0 64 64" viewBox="0 0 64 64" xmlns="http://www.w3.org/2000/svg"><circle cx="32" cy="32" fill="#c75c5c" r="32"/><path d="m32 52c-9.9 0-18-8.1-18-18 0-6.4 3.4-12.3 8.9-15.5 1-.6 2.2-.2 2.7.7.6 1 .2 2.2-.7 2.7-4.2 2.5-6.9 7.2-6.9 12.1 0 7.7 6.3 14 14 14s14-6.3 14-14c0-5.1-2.7-9.7-7.2-12.2-1-.5-1.3-1.8-.8-2.7.5-1 1.8-1.3 2.7-.8 5.8 3.2 9.3 9.2 9.3 15.7 0 9.9-8.1 18-18 18z" fill="#231f20" opacity=".2"/><path d="m32 36c-1.1 0-2-.9-2-2v-20c0-1.1.9-2 2-2s2 .9 2 2v20c0 1.1-.9 2-2 2z" fill="#231f20" opacity=".2"/><g fill="none" stroke="#fff" stroke-linecap="round" stroke-miterlimit="10" stroke-width="4"><path d="m39.8 18c4.9 2.7 8.2 8 8.2 14 0 8.8-7.2 16-16 16s-16-7.2-16-16c0-5.9 3.2-11 7.9-13.8"/><path d="m32 32v-20"/></g></svg>